# xmcd
#
# Track frame offsets:
#	150
#	10414
#	21701
#	30139
#	38955
#	50059
#	58947
#	68398
#	80053
#	89689
#	99970
#	110123
#	122471
#	132664
#	144762
#	156244
#	166444
#	177022
#	186934
#	199271
#
# Disc length: 2780 seconds
# Revision: 1
# Processed by: cddbd v1.5.2PL0 Copyright (c) Steve Scherf et al.
# Submitted via: dBpowerAMP V12.0
#
DISCID=1b0ada14
DTITLE=Various Artist - Still Alive And Rockin'
DYEAR=1950
DGENRE=Country
TTITLE0=Elvis Presley - Hound Dog
TTITLE1=Buddy Holly - Peggy Sue
TTITLE2=Ricky Nelson - Stood Up
TTITLE3=Eddie Cochran - Summertime Blues
TTITLE4=<Various Artists - Dream Love
TTITLE5=Roy Orbison - Rockhouse
TTITLE6=Ritchie Valens - La Bamba
TTITLE7=Gene Vincent - Be Bop A Luna
TTITLE8=Jonny and The Hurricanes - Red River Rock
TTITLE9=Big Bopper - Chantilly Lace
TTITLE10=Desan Martin - Momories Are Made Of This
TTITLE11=Larry Williams - Slow Down
TTITLE12=Clyde McPhatter - Rock And Cry
TTITLE13=Jackie Wilson - Reet Petite
TTITLE14=Jim Reeves - Yonder Comes A Sucker
TTITLE15=Carl Perkins - Blue Suede Shoes
TTITLE16=Buddy Knox  - Hula Love
TTITLE17=Bill Haley and Comets - Rock Around The Clock
TTITLE18=Sam Cooke - You send Me
TTITLE19=Johnny Brunette R&R Trio - Lonesome Train
EXTD=
EXTT0=
EXTT1=
EXTT2=
EXTT3=
EXTT4=
EXTT5=
EXTT6=
EXTT7=
EXTT8=
EXTT9=
EXTT10=
EXTT11=
EXTT12=
EXTT13=
EXTT14=
EXTT15=
EXTT16=
EXTT17=
EXTT18=
EXTT19=
PLAYORDER=
